<svg width="22" height="22" viewBox="0 0 22 22" fill="none" xmlns="http://www.w3.org/2000/svg">
<path d="M10.9987 1.83301C5.9442 1.83301 1.83203 5.94517 1.83203 10.9997C1.83203 16.0542 5.9442 20.1663 10.9987 20.1663C16.0532 20.1663 20.1654 16.0542 20.1654 10.9997C20.1654 5.94517 16.0532 1.83301 10.9987 1.83301ZM10.9987 18.333C6.95528 18.333 3.66536 15.0431 3.66536 10.9997C3.66536 6.95626 6.95528 3.66634 10.9987 3.66634C15.0421 3.66634 18.332 6.95626 18.332 10.9997C18.332 15.0431 15.0421 18.333 10.9987 18.333Z" fill="white"/>
<path d="M9.16737 12.4544L7.05996 10.3506L5.76562 11.6486L9.16921 15.0449L15.3164 8.89773L14.0202 7.60156L9.16737 12.4544Z" fill="white"/>
</svg>
