<svg width="18" height="18" viewBox="0 0 18 18" fill="none" xmlns="http://www.w3.org/2000/svg">
<g clip-path="url(#clip0_553_1585)">
<path d="M9.00041 15.632C5.34475 15.632 2.36883 12.6561 2.36883 9.00041C2.36883 5.34475 5.34475 2.36883 9.00041 2.36883C12.6561 2.36883 15.632 5.34475 15.632 9.00041C15.632 12.6561 12.6561 15.632 9.00041 15.632ZM9.00041 0.710938C4.41633 0.710938 0.710938 4.41633 0.710938 9.00041C0.710938 13.5845 4.41633 17.2899 9.00041 17.2899C13.5845 17.2899 17.2899 13.5845 17.2899 9.00041C17.2899 4.41633 13.5845 0.710938 9.00041 0.710938ZM11.1474 5.68462L9.00041 7.8316L6.85344 5.68462L5.68462 6.85344L7.8316 9.00041L5.68462 11.1474L6.85344 12.3162L9.00041 10.1692L11.1474 12.3162L12.3162 11.1474L10.1692 9.00041L12.3162 6.85344L11.1474 5.68462Z" fill="white"/>
</g>
<defs>
<clipPath id="clip0_553_1585">
<rect width="18" height="18" fill="white"/>
</clipPath>
</defs>
</svg>
